# xmcd
#
# Track frame offsets: 
#        150
#        15852
#        32872
#        51651
#        62948
#        78478
#        96353
#        122685
#
# Disc length: 3646 seconds
#
# Revision: 0
# Processed by: cddbd v1.5.2PL0 Copyright (c) Steve Scherf et al.
# Submitted via: ExactAudioCopy v0.99pb5
#
DISCID=680e3c08
DTITLE=Duffy - Rockferry (Deluxe Edition. CD2)
DYEAR=2008
DGENRE=Soul
TTITLE0=Rain On Your Parade
TTITLE1=Fool For You
TTITLE2=Stop
TTITLE3=Oh Boy
TTITLE4=Please Stay
TTITLE5=Breaking My Own Heart
TTITLE6=Enough Love
TTITLE7=Data
EXTD=
EXTT0=
EXTT1=
EXTT2=
EXTT3=
EXTT4=
EXTT5=
EXTT6=
EXTT7=
PLAYORDER=
